<svg width="173" height="47" viewBox="0 0 173 47" fill="none" xmlns="http://www.w3.org/2000/svg">
<path d="M19.5919 46.7681C16.6479 46.7681 13.9812 46.2987 11.5919 45.3601C9.24521 44.3787 7.21855 42.9281 5.51188 41.0081C3.84788 39.0881 2.56788 36.7201 1.67188 33.9041C0.775881 31.0454 0.327881 27.7387 0.327881 23.9841C0.327881 20.2294 0.775881 16.9014 1.67188 14.0001C2.56788 11.0561 3.84788 8.60273 5.51188 6.64006C7.21855 4.63472 9.24521 3.12006 11.5919 2.09606C13.9812 1.07206 16.6479 0.560059 19.5919 0.560059C23.6025 0.560059 26.9305 1.41339 29.5759 3.12006C32.2212 4.82673 34.3332 7.40806 35.9119 10.8641L28.6799 14.7041C28.0399 12.6987 26.9945 11.0987 25.5439 9.90406C24.0932 8.66673 22.1092 8.04806 19.5919 8.04806C16.4345 8.04806 13.9172 9.11472 12.0399 11.2481C10.2052 13.3814 9.28788 16.3681 9.28788 20.2081V27.2481C9.28788 31.1307 10.2052 34.1174 12.0399 36.2081C13.9172 38.2561 16.4345 39.2801 19.5919 39.2801C22.1092 39.2801 24.1572 38.5974 25.7359 37.2321C27.3572 35.8667 28.5305 34.1814 29.2559 32.1761L36.1039 36.2081C34.4825 39.5361 32.3279 42.1387 29.6399 44.0161C26.9519 45.8507 23.6025 46.7681 19.5919 46.7681Z" fill="#4338CA"/>
<path d="M53.9984 46.7681C50.1584 46.7681 46.8944 46.0854 44.2064 44.7201C41.561 43.3547 39.2784 41.5627 37.3584 39.3441L43.0544 33.8401C44.5904 35.6321 46.297 36.9974 48.1744 37.9361C50.0944 38.8747 52.2064 39.3441 54.5104 39.3441C57.113 39.3441 59.0757 38.7894 60.3984 37.6801C61.721 36.5281 62.3824 34.9921 62.3824 33.0721C62.3824 31.5787 61.9557 30.3627 61.1024 29.4241C60.249 28.4854 58.649 27.8027 56.3024 27.3761L52.0784 26.7361C43.161 25.3281 38.7024 20.9974 38.7024 13.7441C38.7024 11.7387 39.065 9.92539 39.7904 8.30406C40.5584 6.68273 41.6464 5.29606 43.0544 4.14406C44.4624 2.99206 46.1477 2.11739 48.1104 1.52006C50.1157 0.880058 52.377 0.560059 54.8944 0.560059C58.265 0.560059 61.209 1.11473 63.7264 2.22406C66.2437 3.33339 68.3984 4.97606 70.1904 7.15206L64.4304 12.5921C63.321 11.2267 61.977 10.1174 60.3984 9.26406C58.8197 8.41073 56.8357 7.98406 54.4464 7.98406C52.0144 7.98406 50.1797 8.45339 48.9424 9.39206C47.7477 10.2881 47.1504 11.5681 47.1504 13.2321C47.1504 14.9387 47.641 16.1974 48.6224 17.0081C49.6037 17.8187 51.1824 18.4161 53.3584 18.8001L57.5184 19.5681C62.041 20.3787 65.369 21.8294 67.5024 23.9201C69.6784 25.9681 70.7664 28.8481 70.7664 32.5601C70.7664 34.6934 70.3824 36.6347 69.6144 38.3841C68.889 40.0907 67.801 41.5841 66.3504 42.8641C64.9424 44.1014 63.193 45.0614 61.1024 45.7441C59.0544 46.4267 56.6864 46.7681 53.9984 46.7681Z" fill="#4338CA"/>
<path d="M89.1109 46.7681C85.2709 46.7681 82.0069 46.0854 79.3189 44.7201C76.6735 43.3547 74.3909 41.5627 72.4709 39.3441L78.1669 33.8401C79.7029 35.6321 81.4095 36.9974 83.2869 37.9361C85.2069 38.8747 87.3189 39.3441 89.6229 39.3441C92.2255 39.3441 94.1882 38.7894 95.5109 37.6801C96.8335 36.5281 97.4949 34.9921 97.4949 33.0721C97.4949 31.5787 97.0682 30.3627 96.2149 29.4241C95.3615 28.4854 93.7615 27.8027 91.4149 27.3761L87.1909 26.7361C78.2735 25.3281 73.8149 20.9974 73.8149 13.7441C73.8149 11.7387 74.1775 9.92539 74.9029 8.30406C75.6709 6.68273 76.7589 5.29606 78.1669 4.14406C79.5749 2.99206 81.2602 2.11739 83.2229 1.52006C85.2282 0.880058 87.4895 0.560059 90.0069 0.560059C93.3775 0.560059 96.3215 1.11473 98.8389 2.22406C101.356 3.33339 103.511 4.97606 105.303 7.15206L99.5429 12.5921C98.4335 11.2267 97.0895 10.1174 95.5109 9.26406C93.9322 8.41073 91.9482 7.98406 89.5589 7.98406C87.1269 7.98406 85.2922 8.45339 84.0549 9.39206C82.8602 10.2881 82.2629 11.5681 82.2629 13.2321C82.2629 14.9387 82.7535 16.1974 83.7349 17.0081C84.7162 17.8187 86.2949 18.4161 88.4709 18.8001L92.6309 19.5681C97.1535 20.3787 100.482 21.8294 102.615 23.9201C104.791 25.9681 105.879 28.8481 105.879 32.5601C105.879 34.6934 105.495 36.6347 104.727 38.3841C104.002 40.0907 102.914 41.5841 101.463 42.8641C100.055 44.1014 98.3055 45.0614 96.2149 45.7441C94.1669 46.4267 91.7989 46.7681 89.1109 46.7681Z" fill="#4338CA"/>
<path d="M119.248 1.328V28.784C119.248 32.2827 119.909 34.9067 121.232 36.656C122.597 38.4053 124.88 39.28 128.08 39.28C131.28 39.28 133.541 38.4053 134.864 36.656C136.229 34.9067 136.912 32.2827 136.912 28.784V1.328H145.232V27.696C145.232 30.9813 144.912 33.8187 144.272 36.208C143.675 38.5973 142.693 40.5813 141.328 42.16C139.963 43.7387 138.171 44.912 135.952 45.68C133.776 46.4053 131.131 46.768 128.016 46.768C124.859 46.768 122.192 46.4053 120.016 45.68C117.883 44.912 116.133 43.7387 114.768 42.16C113.403 40.5813 112.421 38.5973 111.824 36.208C111.227 33.8187 110.928 30.9813 110.928 27.696V1.328H119.248Z" fill="#2DD4BF"/>
<path d="M152.299 46V39.216H158.187V8.112H152.299V1.328H172.587V8.112H166.635V39.216H172.587V46H152.299Z" fill="#2DD4BF"/>
</svg>
