<svg width="97" height="97" viewBox="0 0 97 97" fill="none" xmlns="http://www.w3.org/2000/svg">
<g clip-path="url(#clip0)">
<path d="M60.7668 63.8654C58.1112 66.5211 53.7899 66.5211 51.1342 63.8654C48.4839 61.2151 48.4886 56.8985 51.1443 54.2429C51.5193 53.8679 51.9336 53.5399 52.3823 53.2623L48.0833 48.9633L43.1913 53.8553C43.0469 53.9996 42.8409 54.0641 42.64 54.0275C42.4393 53.9912 42.269 53.8588 42.1846 53.6728C41.904 53.0554 41.5201 52.5008 41.0435 52.0242C38.873 49.8537 35.3459 49.8493 33.181 52.0142C31.0105 54.1846 31.0104 57.7162 33.181 59.8867C33.6642 60.37 34.2188 60.749 34.8292 61.0132C34.8528 61.0235 34.8756 61.035 34.8976 61.048C35.0071 61.1126 35.0938 61.2087 35.1467 61.3229C35.1678 61.3685 35.1835 61.4171 35.1933 61.4677C35.2319 61.6702 35.1679 61.8785 35.0221 62.0243L30.13 66.9164L42.1147 78.901C45.4057 82.192 50.7607 82.192 54.0517 78.901L66.0363 66.9165L61.7446 62.6248C61.4725 63.0715 61.1456 63.4867 60.7668 63.8654Z" fill="#374151"/>
<path d="M32.3011 51.1344C34.9514 48.4841 39.268 48.4888 41.9237 51.1444C42.2987 51.5194 42.6266 51.9338 42.9042 52.3825L47.2032 48.0834L42.3113 43.1915C42.185 43.0652 42.1199 42.8919 42.13 42.7159C42.1315 42.6907 42.1344 42.6656 42.139 42.6405C42.1754 42.4396 42.3079 42.2694 42.4936 42.1851C43.1108 41.9045 43.6655 41.5205 44.1422 41.0438C46.3127 38.8733 46.3172 35.3463 44.1522 33.1814C41.9818 31.011 38.4502 31.0109 36.2797 33.1814C35.7964 33.6647 35.4173 34.2192 35.1531 34.8295C35.0712 35.0187 34.9011 35.155 34.6987 35.1936C34.5215 35.2275 34.3398 35.1827 34.1995 35.0732C34.1795 35.0577 34.1604 35.0408 34.1421 35.0225L29.2501 30.1304L17.2656 42.1149C13.9746 45.4059 13.9745 50.7609 17.2655 54.0519L29.2501 66.0364L33.5417 61.7448C33.095 61.4728 32.6798 61.1457 32.301 60.7669C29.6454 58.1113 29.6454 53.79 32.3011 51.1344Z" fill="#374151"/>
<path d="M35.3997 32.3011C38.0554 29.6455 42.3766 29.6454 45.0323 32.3011C47.6825 34.9514 47.6779 39.2681 45.0223 41.9237C44.6472 42.2988 44.2329 42.6268 43.7842 42.9043L48.0832 47.2033L53.116 42.1705C53.2721 42.0144 53.499 41.9528 53.7127 42.0083C53.9263 42.0638 54.0943 42.2283 54.1547 42.4404C54.408 43.3317 54.8854 44.1463 55.5354 44.7963C57.7003 46.9612 61.277 46.9071 63.5085 44.6756C65.74 42.4442 65.794 38.8674 63.6292 36.7025C62.9629 36.0362 62.1509 35.5595 61.2808 35.3239C61.0666 35.266 60.8995 35.0981 60.8422 34.8835C60.7849 34.669 60.8465 34.4402 61.0035 34.2833L66.0364 29.2503L54.0517 17.2655C50.7607 13.9746 45.4058 13.9746 42.1148 17.2655L30.1303 29.2501L34.4219 33.5417C34.6938 33.0951 35.0208 32.68 35.3997 32.3011Z" fill="#374151"/>
<path d="M78.9009 42.1147L66.9164 30.1301L62.574 34.4725C63.2837 34.7966 63.9408 35.2537 64.5092 35.8222C67.1594 38.4724 67.1053 42.8386 64.3885 45.5554C61.6718 48.2721 57.3056 48.3263 54.6553 45.676C54.0954 45.1161 53.6397 44.4572 53.3099 43.7366L48.9634 48.0831L53.8555 52.9752C53.9996 53.1194 54.0642 53.3255 54.0276 53.5262C53.9914 53.7272 53.8587 53.8972 53.6729 53.9818C53.0556 54.2623 52.5011 54.6463 52.0245 55.1229C49.8541 57.2933 49.8495 60.8204 52.0144 62.9854C54.1848 65.1558 57.7165 65.1558 59.8869 62.9854C60.3701 62.5022 60.749 61.9476 61.0132 61.3371C61.0337 61.2898 61.0597 61.2459 61.0904 61.206C61.1823 61.086 61.3159 61.0021 61.4679 60.9732C61.6198 60.9443 61.7749 60.9731 61.9045 61.0508C61.9477 61.0766 61.988 61.108 62.0245 61.1444L66.9166 66.0365L78.9012 54.0518C82.192 50.7607 82.1919 45.4057 78.9009 42.1147Z" fill="#2DD4BF"/>
</g>
<defs>
<clipPath id="clip0">
<rect width="68" height="68" fill="white" transform="translate(48.0833) rotate(45)"/>
</clipPath>
</defs>
</svg>
