<svg width="281" height="97" viewBox="0 0 281 97" fill="none" xmlns="http://www.w3.org/2000/svg">
<path d="M118.584 71.512C115.171 71.512 112.163 70.8507 109.56 69.528C107 68.2053 104.995 66.328 103.544 63.896C102.136 61.464 101.432 58.648 101.432 55.448V41.624C101.432 38.4667 102.136 35.6933 103.544 33.304C104.995 30.872 107 28.9947 109.56 27.672C112.163 26.3493 115.171 25.688 118.584 25.688C121.997 25.688 124.984 26.328 127.544 27.608C130.147 28.8453 132.152 30.616 133.56 32.92C135.011 35.1813 135.736 37.8053 135.736 40.792C135.736 41.0053 135.651 41.176 135.48 41.304C135.352 41.432 135.181 41.496 134.968 41.496L125.88 42.072C125.368 42.072 125.112 41.8373 125.112 41.368C125.112 39.3627 124.515 37.7627 123.32 36.568C122.125 35.3733 120.547 34.776 118.584 34.776C116.621 34.776 115.043 35.3947 113.848 36.632C112.653 37.8267 112.056 39.4053 112.056 41.368V55.896C112.056 57.8587 112.653 59.4373 113.848 60.632C115.043 61.8267 116.621 62.424 118.584 62.424C120.547 62.424 122.125 61.8267 123.32 60.632C124.515 59.4373 125.112 57.8587 125.112 55.896C125.112 55.4267 125.368 55.192 125.88 55.192L134.968 55.64C135.181 55.64 135.352 55.704 135.48 55.832C135.651 55.96 135.736 56.1093 135.736 56.28C135.736 59.3093 135.011 61.976 133.56 64.28C132.152 66.584 130.147 68.376 127.544 69.656C124.984 70.8933 121.997 71.512 118.584 71.512ZM156.112 71.512C152.571 71.512 149.477 70.9573 146.832 69.848C144.229 68.696 142.203 67.0747 140.752 64.984C139.344 62.8507 138.64 60.3973 138.64 57.624V56.408C138.64 56.1947 138.704 56.024 138.832 55.896C139.003 55.7253 139.195 55.64 139.408 55.64H148.304C148.517 55.64 148.688 55.7253 148.816 55.896C148.987 56.024 149.072 56.1947 149.072 56.408V57.176C149.072 58.584 149.776 59.8213 151.184 60.888C152.592 61.912 154.491 62.424 156.88 62.424C158.757 62.424 160.144 62.0187 161.04 61.208C161.936 60.3973 162.384 59.4587 162.384 58.392C162.384 57.5387 162.107 56.856 161.552 56.344C161.04 55.7893 160.336 55.3413 159.44 55C158.544 54.616 157.157 54.104 155.28 53.464C155.024 53.336 154.768 53.2507 154.512 53.208C154.256 53.1227 154.021 53.0373 153.808 52.952C151.035 52.056 148.624 51.096 146.576 50.072C144.528 49.0053 142.779 47.5547 141.328 45.72C139.877 43.8427 139.152 41.5387 139.152 38.808C139.152 36.1627 139.835 33.8587 141.2 31.896C142.608 29.8907 144.549 28.3547 147.024 27.288C149.499 26.2213 152.293 25.688 155.408 25.688C158.693 25.688 161.637 26.2853 164.24 27.48C166.885 28.6747 168.955 30.36 170.448 32.536C171.941 34.712 172.688 37.208 172.688 40.024V40.92C172.688 41.1333 172.603 41.3253 172.432 41.496C172.304 41.624 172.133 41.688 171.92 41.688H163.024C162.811 41.688 162.619 41.624 162.448 41.496C162.32 41.3253 162.256 41.1333 162.256 40.92V40.472C162.256 38.9787 161.595 37.656 160.272 36.504C158.949 35.352 157.179 34.776 154.96 34.776C153.296 34.776 151.995 35.1173 151.056 35.8C150.117 36.4827 149.648 37.4427 149.648 38.68C149.648 39.6187 149.947 40.408 150.544 41.048C151.141 41.6453 152.059 42.2213 153.296 42.776C154.576 43.288 156.517 43.9707 159.12 44.824C162.107 45.848 164.432 46.744 166.096 47.512C167.76 48.28 169.317 49.5387 170.768 51.288C172.261 52.9947 173.008 55.256 173.008 58.072C173.008 60.8453 172.304 63.2347 170.896 65.24C169.488 67.2453 167.504 68.8027 164.944 69.912C162.427 70.9787 159.483 71.512 156.112 71.512ZM193.145 71.512C189.603 71.512 186.51 70.9573 183.865 69.848C181.262 68.696 179.235 67.0747 177.785 64.984C176.377 62.8507 175.673 60.3973 175.673 57.624V56.408C175.673 56.1947 175.737 56.024 175.865 55.896C176.035 55.7253 176.227 55.64 176.441 55.64H185.337C185.55 55.64 185.721 55.7253 185.849 55.896C186.019 56.024 186.105 56.1947 186.105 56.408V57.176C186.105 58.584 186.809 59.8213 188.217 60.888C189.625 61.912 191.523 62.424 193.913 62.424C195.79 62.424 197.177 62.0187 198.073 61.208C198.969 60.3973 199.417 59.4587 199.417 58.392C199.417 57.5387 199.139 56.856 198.585 56.344C198.073 55.7893 197.369 55.3413 196.473 55C195.577 54.616 194.19 54.104 192.313 53.464C192.057 53.336 191.801 53.2507 191.545 53.208C191.289 53.1227 191.054 53.0373 190.841 52.952C188.067 52.056 185.657 51.096 183.609 50.072C181.561 49.0053 179.811 47.5547 178.361 45.72C176.91 43.8427 176.185 41.5387 176.185 38.808C176.185 36.1627 176.867 33.8587 178.233 31.896C179.641 29.8907 181.582 28.3547 184.057 27.288C186.531 26.2213 189.326 25.688 192.441 25.688C195.726 25.688 198.67 26.2853 201.273 27.48C203.918 28.6747 205.987 30.36 207.481 32.536C208.974 34.712 209.721 37.208 209.721 40.024V40.92C209.721 41.1333 209.635 41.3253 209.465 41.496C209.337 41.624 209.166 41.688 208.953 41.688H200.057C199.843 41.688 199.651 41.624 199.481 41.496C199.353 41.3253 199.289 41.1333 199.289 40.92V40.472C199.289 38.9787 198.627 37.656 197.305 36.504C195.982 35.352 194.211 34.776 191.993 34.776C190.329 34.776 189.027 35.1173 188.089 35.8C187.15 36.4827 186.681 37.4427 186.681 38.68C186.681 39.6187 186.979 40.408 187.577 41.048C188.174 41.6453 189.091 42.2213 190.329 42.776C191.609 43.288 193.55 43.9707 196.153 44.824C199.139 45.848 201.465 46.744 203.129 47.512C204.793 48.28 206.35 49.5387 207.801 51.288C209.294 52.9947 210.041 55.256 210.041 58.072C210.041 60.8453 209.337 63.2347 207.929 65.24C206.521 67.2453 204.537 68.8027 201.977 69.912C199.459 70.9787 196.515 71.512 193.145 71.512ZM230.753 71.512C227.382 71.512 224.396 70.872 221.793 69.592C219.233 68.2693 217.228 66.4133 215.777 64.024C214.369 61.6347 213.665 58.8827 213.665 55.768V26.968C213.665 26.7547 213.729 26.584 213.857 26.456C214.028 26.2853 214.22 26.2 214.433 26.2H223.521C223.734 26.2 223.905 26.2853 224.033 26.456C224.204 26.584 224.289 26.7547 224.289 26.968V55.768C224.289 57.7733 224.865 59.3947 226.017 60.632C227.212 61.8267 228.79 62.424 230.753 62.424C232.673 62.424 234.209 61.8267 235.361 60.632C236.556 59.3947 237.153 57.7733 237.153 55.768V26.968C237.153 26.7547 237.217 26.584 237.345 26.456C237.516 26.2853 237.708 26.2 237.921 26.2H247.009C247.222 26.2 247.393 26.2853 247.521 26.456C247.692 26.584 247.777 26.7547 247.777 26.968V55.768C247.777 58.8827 247.073 61.6347 245.665 64.024C244.257 66.4133 242.252 68.2693 239.649 69.592C237.089 70.872 234.124 71.512 230.753 71.512ZM253.284 71C253.071 71 252.879 70.936 252.708 70.808C252.58 70.6373 252.516 70.4453 252.516 70.232V26.968C252.516 26.7547 252.58 26.584 252.708 26.456C252.879 26.2853 253.071 26.2 253.284 26.2H262.372C262.585 26.2 262.756 26.2853 262.884 26.456C263.055 26.584 263.14 26.7547 263.14 26.968V70.232C263.14 70.4453 263.055 70.6373 262.884 70.808C262.756 70.936 262.585 71 262.372 71H253.284Z" fill="#1E293B"/>
<g clip-path="url(#clip0)">
<path d="M60.7668 63.8654C58.1112 66.5211 53.7899 66.5211 51.1342 63.8654C48.4839 61.2151 48.4886 56.8985 51.1443 54.2429C51.5193 53.8679 51.9336 53.5399 52.3823 53.2623L48.0833 48.9633L43.1913 53.8553C43.0469 53.9996 42.8409 54.0641 42.64 54.0275C42.4393 53.9912 42.269 53.8588 42.1846 53.6728C41.904 53.0554 41.5201 52.5008 41.0435 52.0242C38.873 49.8537 35.3459 49.8493 33.181 52.0142C31.0105 54.1846 31.0104 57.7162 33.181 59.8867C33.6642 60.37 34.2188 60.749 34.8292 61.0132C34.8528 61.0235 34.8756 61.035 34.8976 61.048C35.0071 61.1126 35.0938 61.2087 35.1467 61.3229C35.1678 61.3685 35.1835 61.4171 35.1933 61.4677C35.2319 61.6702 35.1679 61.8785 35.0221 62.0243L30.13 66.9164L42.1147 78.901C45.4057 82.192 50.7607 82.192 54.0517 78.901L66.0363 66.9165L61.7446 62.6248C61.4725 63.0715 61.1456 63.4867 60.7668 63.8654Z" fill="#374151"/>
<path d="M32.3011 51.1344C34.9514 48.4841 39.268 48.4888 41.9237 51.1444C42.2987 51.5194 42.6266 51.9338 42.9042 52.3825L47.2032 48.0834L42.3113 43.1915C42.185 43.0652 42.1199 42.8919 42.13 42.7159C42.1315 42.6907 42.1344 42.6656 42.139 42.6405C42.1754 42.4396 42.3079 42.2694 42.4936 42.1851C43.1108 41.9045 43.6655 41.5205 44.1422 41.0438C46.3127 38.8733 46.3172 35.3463 44.1522 33.1814C41.9818 31.011 38.4502 31.0109 36.2797 33.1814C35.7964 33.6647 35.4173 34.2192 35.1531 34.8295C35.0712 35.0187 34.9011 35.155 34.6987 35.1936C34.5215 35.2275 34.3398 35.1827 34.1995 35.0732C34.1795 35.0577 34.1604 35.0408 34.1421 35.0225L29.2501 30.1304L17.2656 42.1149C13.9746 45.4059 13.9745 50.7609 17.2655 54.0519L29.2501 66.0364L33.5417 61.7448C33.095 61.4728 32.6798 61.1457 32.301 60.7669C29.6454 58.1113 29.6454 53.79 32.3011 51.1344Z" fill="#374151"/>
<path d="M35.3997 32.3011C38.0554 29.6455 42.3766 29.6454 45.0323 32.3011C47.6825 34.9514 47.6779 39.2681 45.0223 41.9237C44.6472 42.2988 44.2329 42.6268 43.7842 42.9043L48.0832 47.2033L53.116 42.1705C53.2721 42.0144 53.499 41.9528 53.7127 42.0083C53.9263 42.0638 54.0943 42.2283 54.1547 42.4404C54.408 43.3317 54.8854 44.1463 55.5354 44.7963C57.7003 46.9612 61.277 46.9071 63.5085 44.6756C65.74 42.4442 65.794 38.8674 63.6292 36.7025C62.9629 36.0362 62.1509 35.5595 61.2808 35.3239C61.0666 35.266 60.8995 35.0981 60.8422 34.8835C60.7849 34.669 60.8465 34.4402 61.0035 34.2833L66.0364 29.2503L54.0517 17.2655C50.7607 13.9746 45.4058 13.9746 42.1148 17.2655L30.1303 29.2501L34.4219 33.5417C34.6938 33.0951 35.0209 32.68 35.3997 32.3011Z" fill="#374151"/>
<path d="M78.9009 42.1147L66.9164 30.1301L62.5741 34.4725C63.2837 34.7966 63.9408 35.2537 64.5092 35.8222C67.1594 38.4724 67.1053 42.8386 64.3885 45.5554C61.6718 48.2721 57.3056 48.3263 54.6553 45.676C54.0954 45.1161 53.6397 44.4572 53.3099 43.7366L48.9634 48.0831L53.8555 52.9752C53.9996 53.1194 54.0642 53.3255 54.0276 53.5262C53.9914 53.7272 53.8587 53.8972 53.6729 53.9818C53.0556 54.2623 52.5011 54.6463 52.0245 55.1229C49.8541 57.2933 49.8495 60.8204 52.0144 62.9854C54.1848 65.1558 57.7165 65.1558 59.8869 62.9854C60.3701 62.5022 60.749 61.9476 61.0132 61.3371C61.0337 61.2898 61.0597 61.2459 61.0904 61.206C61.1823 61.086 61.3159 61.0021 61.4679 60.9732C61.6198 60.9443 61.7749 60.9731 61.9045 61.0508C61.9477 61.0766 61.988 61.108 62.0245 61.1444L66.9166 66.0365L78.9012 54.0518C82.192 50.7607 82.1919 45.4057 78.9009 42.1147Z" fill="#2DD4BF"/>
</g>
<defs>
<clipPath id="clip0">
<rect width="68" height="68" fill="white" transform="translate(48.0833) rotate(45)"/>
</clipPath>
</defs>
</svg>
